<svg width="20" height="20" viewBox="0 0 20 20" fill="none" xmlns="http://www.w3.org/2000/svg">
<path d="M18.6098 9.16953V3.23476C18.6127 2.74738 18.4226 2.27863 18.0809 1.93105C17.7277 1.5949 17.2586 1.40738 16.771 1.40738C16.2833 1.40738 15.8144 1.59491 15.461 1.93105L15.381 2.00475C14.791 1.81096 14.1437 1.91274 13.6417 2.27834C13.1396 2.64394 12.844 3.22881 12.8473 3.84982C12.8447 4.11197 12.8971 4.37166 13.001 4.61244L13.8128 6.50666H13.7328H13.7329C13.3663 6.38321 12.9819 6.32081 12.5951 6.32203H11.4696C10.7593 6.31943 10.0774 6.60065 9.57556 7.10312L9.31723 7.36755C9.35858 7.1196 9.38132 6.86873 9.38483 6.61728V5.69474C9.38483 5.03556 9.03327 4.42658 8.46229 4.09701C7.89147 3.76742 7.18819 3.76742 6.61737 4.09701C6.04655 4.4266 5.69483 5.03556 5.69483 5.69474V6.03913C5.69422 6.4728 5.54682 6.89331 5.27674 7.23222L3.98526 8.84355C3.71503 9.18641 3.30229 9.38585 2.86588 9.38476H2.00483C1.84171 9.38476 1.68531 9.44961 1.56995 9.56496C1.45474 9.68032 1.38989 9.83672 1.38989 9.99985V17.9948C1.38989 18.1579 1.45474 18.3143 1.56995 18.4297C1.6853 18.545 1.84171 18.6097 2.00483 18.6097H9.38491C9.52544 18.6138 9.66308 18.5697 9.77492 18.4846C9.88692 18.3996 9.96627 18.2787 9.99999 18.1423L10.5473 15.9652L11.9495 18.3083C12.0569 18.4896 12.2495 18.6033 12.46 18.6097H17.9952C18.1583 18.6097 18.3147 18.545 18.4301 18.4297C18.5454 18.3143 18.6101 18.1579 18.6101 17.9948V9.77211V9.16938L18.6098 9.16953ZM17.2014 2.80429C17.3151 2.91889 17.3792 3.07346 17.3798 3.23476V5.23976L16.6234 3.19796C16.564 3.04126 16.4855 2.89248 16.3896 2.75515C16.5077 2.66314 16.6554 2.61721 16.8048 2.62637C16.9544 2.63537 17.0954 2.6987 17.2014 2.80429ZM2.61976 17.3797V10.6148H2.86573C3.67596 10.6185 4.44272 10.2486 4.94444 9.61234L6.23592 8.00101V8.00116C6.68104 7.44405 6.92393 6.75237 6.92471 6.03917V5.69478C6.92471 5.47505 7.0419 5.27212 7.23218 5.16224C7.42261 5.05238 7.65698 5.05238 7.84726 5.16224C8.03753 5.27211 8.15472 5.47505 8.15472 5.69478V6.61732C8.15335 7.1297 8.03341 7.63494 7.80422 8.0933L6.99247 9.7231C6.89649 9.91338 6.90595 10.1398 7.01749 10.3215C7.12903 10.5033 7.32663 10.6142 7.53979 10.6148H12.9148C13.1533 10.6154 13.38 10.7187 13.5372 10.8982C13.6942 11.0776 13.7667 11.3159 13.7359 11.5525C13.7051 11.7888 13.574 12.0008 13.3761 12.1338L13.0993 12.3183V12.3185C12.963 12.4102 12.8025 12.4595 12.638 12.4599H6.92472C6.705 12.4599 6.50207 12.5771 6.39218 12.7674C6.2823 12.9577 6.28232 13.192 6.39218 13.3823C6.50205 13.5726 6.70499 13.6898 6.92472 13.6898H9.82753L9.52007 14.9198H6.92472C6.70499 14.9198 6.50206 15.0371 6.39218 15.2274C6.28231 15.4177 6.28231 15.652 6.39218 15.8423C6.50204 16.0326 6.70498 16.1498 6.92472 16.1498H9.21245L8.90499 17.3798L2.61976 17.3797ZM17.3799 17.3797H12.8104L11.1437 14.6061C11.1165 14.5626 11.0855 14.5214 11.0515 14.4831L10.9285 14.3601L11.0945 13.6897H12.6381C13.0451 13.6904 13.4432 13.5706 13.7821 13.3453L14.0589 13.1547C14.5122 12.8529 14.8271 12.3833 14.9344 11.8493C15.0417 11.3154 14.9324 10.7607 14.6308 10.3072L14.5938 10.2581V10.2579C14.2233 9.70832 13.6023 9.38055 12.9395 9.38469H9.38477V9.02184L10.4488 7.9641C10.7173 7.6899 11.0858 7.53683 11.4696 7.53976H12.595C12.8482 7.54007 13.0995 7.58157 13.3392 7.66275L14.7291 8.12404C14.837 8.15517 14.9515 8.15608 15.0598 8.12678C15.1683 8.09749 15.2666 8.0392 15.3441 7.95787C15.424 7.87059 15.4768 7.76195 15.4965 7.64522C15.5162 7.52849 15.5017 7.40855 15.4548 7.29991L14.1018 4.15112C14.0725 4.05347 14.0642 3.95078 14.0773 3.84977C14.08 3.62531 14.1874 3.4152 14.3676 3.28137C14.5477 3.14755 14.78 3.10543 14.9955 3.16738C15.2113 3.22948 15.3856 3.38848 15.4672 3.59754L17.0724 8.01941H17.0723C17.2751 8.57527 17.3791 9.16215 17.3797 9.75371L17.3799 17.3797Z" fill="white"/>
</svg>
